<svg width="666" height="110" viewBox="0 0 666 110" xmlns="http://www.w3.org/2000/svg">
  <g>
    <path fill="#E72564" d="M62.3737 105.207C59.5781 109.047 53.8509 109.047 51.0553 105.207L27.7796 73.2344C25.0105 69.4307 26.7073 64.0329 31.1546 62.4977L54.4303 54.4628C55.9102 53.9519 57.5187 53.9519 58.9987 54.4628L82.2744 62.4977C86.7217 64.033 88.4184 69.4307 85.6494 73.2344L62.3737 105.207ZM56.7145 99.3879L78.3862 69.6187L56.7145 62.1375L35.0428 69.6187L56.7145 99.3879Z"/>
    <path fill="#E723A0" d="M110.86 61.7624C113.648 65.6079 111.878 71.0547 107.362 72.5268L69.7621 84.7833C65.2889 86.2414 60.6796 82.9597 60.5938 78.2556L60.1447 53.6362C60.1162 52.0708 60.6132 50.5411 61.5564 49.2914L76.3907 29.6379C79.2251 25.8826 84.883 25.9369 87.6448 29.7459L110.86 61.7624ZM103.577 65.3465L81.9617 35.5363L68.1497 53.8355L68.5678 76.7583L103.577 65.3465Z"/>
    <path fill="#E520E9" d="M84.5326 2.25877C89.0515 0.795227 93.6849 4.16159 93.6894 8.91158L93.7269 48.4589C93.7314 53.1638 89.1859 56.5333 84.6856 55.1613L61.1323 47.9806C59.6347 47.524 58.3334 46.5786 57.4364 45.2954L43.3288 25.1139C40.6333 21.2577 42.4333 15.8935 46.9092 14.4439L84.5326 2.25877ZM85.6907 10.2928L50.6601 21.6382L63.7955 40.429L85.7256 47.1148L85.6907 10.2928Z"/>
    <path fill="#E520E9" d="M28.9346 2.27586C24.4156 0.812317 19.7823 4.17868 19.7778 8.92867L19.7402 48.476C19.7358 53.1809 24.2812 56.5504 28.7816 55.1784L52.3348 47.9977C53.8324 47.5411 55.1337 46.5957 56.0307 45.3125L70.1383 25.1309C72.8339 21.2748 71.0339 15.9106 66.5579 14.461L28.9346 2.27586ZM27.7765 10.3099L62.8071 21.6553L49.6717 40.4461L27.7415 47.1319L27.7765 10.3099Z"/>
    <path fill="#E723A0" d="M2.58066 61.7555C-0.20768 65.601 1.56213 71.0479 6.07825 72.52L43.6784 84.7765C48.1516 86.2346 52.7608 82.9529 52.8467 78.2488L53.2958 53.6294C53.3243 52.064 52.8273 50.5342 51.8841 49.2846L37.0498 29.631C34.2154 25.8758 28.5575 25.9301 25.7956 29.739L2.58066 61.7555ZM9.8636 65.3396L31.4788 35.5294L45.2908 53.8286L44.8726 76.7515L9.8636 65.3396Z"/>
    <path fill="#FF96D1" d="M79.5687 81.5867L85.6488 73.2348C86.1993 72.4787 86.5733 71.6596 86.7842 70.8204L74.626 74.7836L67.1038 85.1164C67.9705 85.1767 68.8689 85.0745 69.7619 84.7835L79.5687 81.5867Z"/>
    <path fill="#FF96D1" d="M60.167 54.8667L60.3224 63.3836L68.3744 66.1632L68.219 57.6463L60.167 54.8667Z"/>
    <path fill="#FF96D1" d="M93.7166 38.12L87.6446 29.7459C87.0975 28.9914 86.4368 28.3842 85.7069 27.9248L85.7191 40.7186L93.2279 51.0742C93.5492 50.2726 93.7273 49.3919 93.7264 48.4587L93.7166 38.12Z"/>
    <path fill="#FF96D1" d="M70.4293 50.8149L62.2812 48.3308L67.413 41.5318L75.5611 44.0159L70.4293 50.8149Z"/>
    <path fill="#FF96D1" d="M56.7395 44.2982L61.6199 37.3166L56.7395 30.3349L51.859 37.3166L56.7395 44.2982Z"/>
    <path fill="#FF96D1" d="M44.5547 15.7438C45.2222 15.1823 46.012 14.7344 46.9092 14.4438L56.7071 11.2705L66.5577 14.4608C67.4418 14.7472 68.2215 15.1862 68.8828 15.7363L56.7071 19.6796L44.5547 15.7438Z"/>
    <path fill="#FF96D1" d="M51.1787 48.3499L46.0469 41.5509L37.8988 44.035L43.0306 50.834L51.1787 48.3499Z"/>
    <path fill="#FF96D1" d="M20.2233 51.0523L27.7476 40.6752L27.7598 27.9014C27.0194 28.3627 26.3494 28.9754 25.7957 29.739L19.7501 38.0767L19.7402 48.4757C19.7394 49.3938 19.9118 50.2611 20.2233 51.0523Z"/>
    <path fill="#FF96D1" d="M53.2727 54.8623L45.2207 57.6419L45.0653 66.1588L53.1174 63.3792L53.2727 54.8623Z"/>
    <path fill="#FF96D1" d="M46.3199 85.1104L38.7916 74.7693L26.6406 70.8084C26.8511 71.6518 27.226 72.4749 27.779 73.2346L33.8488 81.5724L43.6778 84.7763C44.5653 85.0656 45.4581 85.1683 46.3199 85.1104Z"/>
  </g>

  <g transform="translate(-30, 0)">
    <path fill="white" d="M162.08 86.6357V13.3457H195.05C198.41 13.3457 201.42 13.9057 204.08 15.0257C206.81 16.0757 209.12 17.6157 211.01 19.6457C212.9 21.6057 214.335 23.9857 215.315 26.7857C216.295 29.5857 216.785 32.6657 216.785 36.0257C216.785 39.4557 216.295 42.5707 215.315 45.3707C214.335 48.1007 212.9 50.4807 211.01 52.5107C209.12 54.4707 206.81 56.0107 204.08 57.1307C201.42 58.1807 198.41 58.7057 195.05 58.7057H175.94V86.6357H162.08ZM175.94 46.7357H193.79C196.45 46.7357 198.55 46.0357 200.09 44.6357C201.63 43.1657 202.4 41.1007 202.4 38.4407V33.6107C202.4 30.9507 201.63 28.9207 200.09 27.5207C198.55 26.1207 196.45 25.4207 193.79 25.4207H175.94V46.7357Z"/>
    <path fill="white" d="M262.106 31.8257H274.706L252.656 96.4007C251.956 98.3607 251.151 100.041 250.241 101.441C249.401 102.911 248.386 104.101 247.196 105.011C246.006 105.921 244.571 106.586 242.891 107.006C241.211 107.426 239.251 107.636 237.011 107.636H228.926V96.9257H238.796L241.316 89.2607L221.681 31.8257H235.016L244.571 60.8057L248.141 74.6657H248.771L252.551 60.8057L262.106 31.8257Z"/>
    <path fill="white" d="M316.872 77.5005H316.347C315.367 80.6505 313.512 83.1705 310.782 85.0605C308.052 86.9505 304.867 87.8956 301.227 87.8956C294.297 87.8956 288.977 85.4106 285.267 80.4406C281.627 75.4706 279.807 68.3655 279.807 59.1255C279.807 49.9555 281.627 42.9205 285.267 38.0205C288.977 33.0505 294.297 30.5655 301.227 30.5655C304.867 30.5655 308.052 31.5105 310.782 33.4005C313.512 35.2205 315.367 37.7055 316.347 40.8555H316.872V8.93555H330.312V86.6355H316.872V77.5005ZM305.532 76.7655C308.752 76.7655 311.447 75.9956 313.617 74.4556C315.787 72.9156 316.872 70.7105 316.872 67.8405V50.4105C316.872 47.7505 315.787 45.6155 313.617 44.0055C311.447 42.3955 308.752 41.5905 305.532 41.5905C302.032 41.5905 299.197 42.7805 297.027 45.1605C294.927 47.4705 293.877 50.5855 293.877 54.5055V63.9555C293.877 67.8755 294.927 70.9906 297.027 73.3006C299.197 75.6106 302.032 76.7655 305.532 76.7655Z"/>
    <path fill="white" d="M386.131 86.6354C383.191 86.6354 380.846 85.7954 379.096 84.1154C377.416 82.3654 376.366 80.0554 375.946 77.1854H375.316C374.406 80.7554 372.551 83.4504 369.751 85.2704C366.951 87.0204 363.486 87.8954 359.356 87.8954C353.756 87.8954 349.451 86.4254 346.441 83.4854C343.431 80.5454 341.926 76.6254 341.926 71.7254C341.926 66.0554 343.956 61.8554 348.016 59.1254C352.076 56.3254 357.851 54.9254 365.341 54.9254H374.686V50.9354C374.686 47.8554 373.881 45.4754 372.271 43.7954C370.661 42.1154 368.071 41.2754 364.501 41.2754C361.351 41.2754 358.796 41.9754 356.836 43.3754C354.946 44.7054 353.336 46.3154 352.006 48.2054L344.026 41.0654C346.056 37.9154 348.751 35.3954 352.111 33.5054C355.471 31.5454 359.916 30.5654 365.446 30.5654C372.866 30.5654 378.501 32.2454 382.351 35.6054C386.201 38.9654 388.126 43.7954 388.126 50.0954V75.9254H393.586V86.6354H386.131ZM363.871 78.1304C366.881 78.1304 369.436 77.4654 371.536 76.1354C373.636 74.8054 374.686 72.8454 374.686 70.2554V63.0104H366.076C359.076 63.0104 355.576 65.2504 355.576 69.7304V71.5154C355.576 73.7554 356.276 75.4354 357.676 76.5554C359.146 77.6054 361.211 78.1304 363.871 78.1304Z"/>
    <path fill="white" d="M404.463 86.6357V31.8257H417.903V40.9607H418.428C419.548 38.0207 421.298 35.5707 423.678 33.6107C426.128 31.5807 429.488 30.5657 433.758 30.5657C439.428 30.5657 443.768 32.4207 446.778 36.1307C449.788 39.8407 451.293 45.1257 451.293 51.9857V86.6357H437.853V53.3507C437.853 49.4307 437.153 46.4907 435.753 44.5307C434.353 42.5707 432.043 41.5907 428.823 41.5907C427.423 41.5907 426.058 41.8007 424.728 42.2207C423.468 42.5707 422.313 43.1307 421.263 43.9007C420.283 44.6007 419.478 45.5107 418.848 46.6307C418.218 47.6807 417.903 48.9407 417.903 50.4107V86.6357H404.463Z"/>
    <path fill="white" d="M483.306 86.6355C478.686 86.6355 475.151 85.4456 472.701 83.0656C470.321 80.6156 469.131 77.1505 469.131 72.6705V42.5355H461.046V31.8255H465.246C467.276 31.8255 468.641 31.3705 469.341 30.4605C470.111 29.4805 470.496 28.0455 470.496 26.1555V16.8105H482.571V31.8255H493.806V42.5355H482.571V75.9256H492.966V86.6355H483.306Z"/>
    <path fill="white" d="M512.184 23.8457C509.384 23.8457 507.354 23.2157 506.094 21.9557C504.904 20.6957 504.309 19.0857 504.309 17.1257V15.0257C504.309 13.0657 504.904 11.4557 506.094 10.1957C507.354 8.93566 509.384 8.30566 512.184 8.30566C514.914 8.30566 516.909 8.93566 518.169 10.1957C519.429 11.4557 520.059 13.0657 520.059 15.0257V17.1257C520.059 19.0857 519.429 20.6957 518.169 21.9557C516.909 23.2157 514.914 23.8457 512.184 23.8457ZM505.464 31.8257H518.904V86.6357H505.464V31.8257Z"/>
    <path fill="white" d="M556.113 87.8954C552.053 87.8954 548.448 87.2304 545.298 85.9004C542.148 84.5704 539.488 82.6454 537.318 80.1254C535.218 77.6054 533.608 74.5954 532.488 71.0954C531.368 67.5254 530.808 63.5354 530.808 59.1254C530.808 54.7154 531.368 50.7604 532.488 47.2604C533.608 43.7604 535.218 40.7854 537.318 38.3354C539.488 35.8154 542.148 33.8904 545.298 32.5604C548.448 31.2304 552.053 30.5654 556.113 30.5654C561.643 30.5654 566.193 31.7904 569.763 34.2404C573.403 36.6904 576.028 40.0854 577.638 44.4254L566.613 49.3604C565.983 47.0504 564.793 45.1604 563.043 43.6904C561.363 42.1504 559.053 41.3804 556.113 41.3804C552.333 41.3804 549.498 42.5704 547.608 44.9504C545.788 47.3304 544.878 50.4454 544.878 54.2954V64.2704C544.878 68.1204 545.788 71.2354 547.608 73.6154C549.498 75.9254 552.333 77.0804 556.113 77.0804C559.333 77.0804 561.818 76.2754 563.568 74.6654C565.318 72.9854 566.683 70.9204 567.663 68.4704L577.953 73.4054C576.133 78.2354 573.368 81.8754 569.658 84.3254C565.948 86.7054 561.433 87.8954 556.113 87.8954Z"/>
    <g transform="translate(-20, 0)">
      <path fill="white" d="M659.329 86.6357L653.449 67.9457H627.409L621.634 86.6357H607.564L632.134 13.3457H649.354L673.714 86.6357H659.329ZM640.639 25.9457H640.114L630.769 56.0807H650.089L640.639 25.9457Z"/>
      <path fill="white" d="M681.472 86.6357V75.5057H691.132V24.4757H681.472V13.3457H714.757V24.4757H704.992V75.5057H714.757V86.6357H681.472Z"/>
    </g>
  </g>
</svg>
